<svg width="240" height="240" viewBox="0 0 240 240" fill="none" xmlns="http://www.w3.org/2000/svg">
<path d="M125 85V134.434C121.754 140.661 118.019 141.742 110 142" stroke="#EDE8D9" stroke-width="15" stroke-linecap="round" stroke-linejoin="round"/>
<path d="M73 88V106" stroke="#EDE8D9" stroke-width="18" stroke-linecap="round"/>
<path d="M170 88V106" stroke="#EDE8D9" stroke-width="18" stroke-linecap="round"/>
<path d="M7 68.0274V39C7 21.3269 21.3269 7 39 7H66.5M7 172.509V201C7 218.673 21.3269 233 39 233H66.5M174 233H201C218.673 233 233 218.673 233 201V172.509M233 68.0274V39C233 21.3269 218.673 7 201 7H174" stroke="#EDE8D9" stroke-width="14" stroke-linecap="round"/>
<path d="M84 166C93.1211 176.439 106.319 183 121 183C135.681 183 148.879 176.439 158 166" stroke="#EDE8D9" stroke-width="14" stroke-linecap="round"/>
</svg>
